# xmcd
#
# Track frame offsets:
#	150
#	18923
#	40300
#	57415
#	74705
#	93847
#	112912
#	128749
#	143914
#	164561
#	179860
#	199084
#	215533
#	230951
#	243006
#	265461
#	287374
#	302845
#	325590
#	340273
#
# Disc length: 4720 seconds
#
# Revision: 0
# Processed by: cddbd v1.5.2PL0 Copyright (c) Steve Scherf et al.
# Submitted via: audiograbber 1.83.01
#
DISCID=31126e14
DTITLE=Various Artist - 100 Hits Rock Jukebox CD1
DYEAR=2016
DGENRE=Rock
TTITLE0=Journey - Don't Stop Believin'
TTITLE1=Boston - More Than A Feeling
TTITLE2=Survivor - Eye Of The Tiger
TTITLE3=Blue Öyster Cult - (Don't Fear) The Reaper
TTITLE4=Big Brother and The Holding Company - Piece Of My Heart
TTITLE5=Lou Reed - Walk On The Wild Side
TTITLE6=Mott The Hoople - All The Young Dudes
TTITLE7=Argent - God Gave Rock and Roll To You
TTITLE8=Saxon - Dogs Of War
TTITLE9=Patti Smith - Because The Night
TTITLE10=Belinda Carlisle - Leave A Light On
TTITLE11=RUN-DMC and Aerosmith - Walk This Way
TTITLE12=Mr Mister - Broken Wings
TTITLE13=The Lovin' Spoonful - Summer In The City
TTITLE14=Toto - Africa
TTITLE15=Air Supply - Making Love Out Of Nothing At All
TTITLE16=Kansas - Dust In The Wind
TTITLE17=Aldo Nova - Fantasy
TTITLE18=Santana - Soul Sacrifice
TTITLE19=Fleetwood Mac - Albatross
EXTD=
EXTT0=
EXTT1=
EXTT2=
EXTT3=
EXTT4=
EXTT5=
EXTT6=
EXTT7=
EXTT8=
EXTT9=
EXTT10=
EXTT11=
EXTT12=
EXTT13=
EXTT14=
EXTT15=
EXTT16=
EXTT17=
EXTT18=
EXTT19=
PLAYORDER=
